<svg xmlns="http://www.w3.org/2000/svg" width="16" height="16" viewBox="0 0 16 16" fill="context-fill" fill-opacity="context-fill-opacity" fill-rule="evenodd" stroke="context-fill" stroke-width="0.264">
  <path d="m 4.0613339,12.006213 v -0.90699 H 3.081685 c -0.5427255,0 -0.9796489,-0.404515 -0.9796489,-0.906985 V 2.9363577 c 0,-0.5024697 0.4369234,-0.9069853 0.9796489,-0.9069853 h 6.8575441 c 0.5427209,0 0.9796469,0.4045156 0.9796469,0.9069853 v 0.9069855 h 0.979651 V 2.9363577 c 0,-1.0049398 -0.873848,-1.8139707 -1.9592979,-1.8139707 H 3.081685 c -1.0854511,0 -1.959298,0.8090309 -1.959298,1.8139707 v 7.2558803 c 0,1.004939 0.8738469,1.813975 1.959298,1.813975 z M 6.0607733,3.9937895 c -1.0854507,0 -1.9592976,0.8090315 -1.9592976,1.813971 v 7.2558815 c 0,1.004942 0.8738469,1.813971 1.9592976,1.813971 h 6.8575457 c 1.085449,0 1.959294,-0.809029 1.959294,-1.813971 V 5.8077605 c 0,-1.0049395 -0.873845,-1.813971 -1.959294,-1.813971 z m 0,0.9069856 h 6.8575457 c 0.54272,0 0.979645,0.4045156 0.979645,0.9069854 v 7.2558815 c 0,0.50247 -0.436925,0.90699 -0.979645,0.90699 H 6.0607733 c -0.5427254,0 -0.9796488,-0.40452 -0.9796488,-0.90699 V 5.8077605 c 0,-0.5024698 0.4369234,-0.9069854 0.9796488,-0.9069854 z"/>
</svg>