<svg width="16" height="16" xmlns="http://www.w3.org/2000/svg">
  <g transform="matrix(1.121875,0,0,1.121875,-5.4574947,-1159.1513)"
     id="rect" >
    <path
       style="display:inline;fill:#e34d44;fill-opacity:1;fill-rule:evenodd;stroke:none"
       d="m 12.000061,1047.3622 c 3.865929,0 6.999939,-3.134 6.999939,-7 0,-3.866 -3.13401,-7 -6.999939,-7 -3.8660427,0 -7.0000616,3.134 -7.0000616,7 0,3.866 3.1340189,7 7.0000616,7"
       id="path2" />
    <path
       style="display:inline;fill:#fe655c;fill-opacity:1;fill-rule:evenodd;stroke:none"
       d="m 12.000067,1046.8623 c 3.589781,0 6.499933,-2.9103 6.499933,-6.5001 0,-3.5899 -2.910152,-6.5 -6.499933,-6.5 -3.5899136,0 -6.5000676,2.9101 -6.5000676,6.5 0,3.5898 2.910154,6.5001 6.5000676,6.5001"
       id="path1" />
  </g>
</svg>
