<svg xmlns="http://www.w3.org/2000/svg" viewBox="0 0 16 16" width="16" height="16" fill="context-fill" fill-opacity="context-fill-opacity">
  <path d="m 12.5,15 h -9 A 1.5009231,1.5244183 0 0 1 2,13.47652 v -2.69539 a 0.69230769,0.70314495 0 0 1 0.6923077,-0.703144 h 1.6153846 c 0.636,0 1.1538461,-0.525953 1.1538461,-1.171909 0,-0.6459558 -0.5178461,-1.1719082 -1.1538461,-1.1719082 H 2.6923077 A 0.69230769,0.70314495 0 0 1 2,7.0310239 V 5.2731615 C 2,4.4322001 2.672,3.7496808 3.5,3.7496808 h 2.1923077 v -1.267536 c 0,-1.2253473 0.8658462,-2.344754 2.0658462,-2.469445 A 2.3095384,2.3456915 0 0 1 10.307693,2.3433909 V 3.7496808 H 12.5 c 0.828,0 1.5,0.6825193 1.5,1.5234807 V 13.47652 C 14,14.317481 13.328,15 12.5,15 Z M 3.1538461,11.249894 v 2.015682 l 0.5538462,0.562516 h 8.5846147 l 0.553847,-0.562516 V 5.484105 L 12.292307,4.921589 H 9.846154 A 0.69230769,0.70314495 0 0 1 9.153846,4.2184441 V 2.3433909 C 9.153846,1.697435 8.636,1.1714826 8,1.1714826 c -0.636,0 -1.1538461,0.5259524 -1.1538461,1.1719083 V 4.2184441 A 0.69230769,0.70314495 0 0 1 6.1538461,4.921589 H 3.6153846 L 3.1538461,5.484105 V 6.5622605 H 4.172 c 1.2073846,0 2.3095384,0.8803376 2.4313846,2.1000597 A 2.3104616,2.346629 0 0 1 4.3076923,11.249894 Z"/>
</svg>
