<svg xmlns="http://www.w3.org/2000/svg" viewBox="0 0 16 16" width="16" height="16" fill="context-fill" fill-opacity="context-fill-opacity">
  <path d="m 1.20883,9.47 2.28,-2.28 -1.55,-1.547 a 0.694,0.694 0 0 1 0,-0.98 3.04,3.04 0 0 1 2.161,-0.894 h 0.122 A 1.673,1.673 0 0 0 5.89283,2.1 V 1.692 A 0.693,0.693 0 0 1 7.07483,1.2 l 3.464,3.464 a 0.693,0.693 0 0 1 -0.49,1.182 h -0.41 a 1.672,1.672 0 0 0 -1.669,1.671 V 7.634 A 2.8,2.8 0 0 1 7.04483,9.826 0.693,0.693 0 0 1 6.09583,9.8 l -1.547,-1.549 -2.28,2.28 a 0.75,0.75 0 0 1 -1.06,-1.061 z"/>
</svg>