<svg xmlns="http://www.w3.org/2000/svg" width="16" height="16" viewBox="0 0 18 18" fill="context-fill" fill-opacity="context-fill-opacity" fill-rule="evenodd">
  <path d="M 6.1875,6.261842 A 0.5625,0.52631579 0 0 0 5.625,5.7355263 h -2.25 a 0.56250003,0.52631582 0 0 0 0,1.0526316 h 2.25 A 0.5625,0.52631579 0 0 0 6.1875,6.261842 Z m 0,2.631579 A 0.5625,0.52631579 0 0 0 5.625,8.3671052 h -2.25 a 0.56250006,0.52631585 0 0 0 0,1.0526317 h 2.25 A 0.5625,0.52631579 0 0 0 6.1875,8.893421 Z m 0,2.631578 A 0.5625,0.52631579 0 0 0 5.625,10.998684 h -2.25 a 0.56250029,0.52631607 0 0 0 0,1.052632 h 2.25 A 0.5625,0.52631579 0 0 0 6.1875,11.524999 Z M 18,14.076019 V 3.9739796 A 2.25,2.4489796 0 0 0 15.75,1.525 H 2.25 A 2.25,2.4489796 0 0 0 0,3.9739796 V 14.076019 A 2.25,2.4489796 0 0 0 2.25,16.525 h 13.5 A 2.25,2.4489796 0 0 0 18,14.076019 Z M 1.40625,14.259693 V 3.7903061 l 0.675,-0.7346939 h 5.5125 V 14.994387 H 2.08125 Z M 9,14.994387 h 6.91875 l 0.675,-0.734694 V 3.7903061 l -0.675,-0.7346939 H 9 Z"/>
</svg>