<svg width="16" height="16" xmlns="http://www.w3.org/2000/svg">
  <g transform="matrix(1.121875,0,0,1.121875,-5.4574947,-1159.1513)"
     id="rect">
    <path
       style="fill:#20a932;fill-opacity:1;fill-rule:evenodd;stroke:none"
       d="m 12.000061,1047.3622 c 3.865929,0 6.999939,-3.134 6.999939,-7 0,-3.866 -3.13401,-7 -6.999939,-7 -3.8660427,0 -7.0000616,3.134 -7.0000616,7 0,3.866 3.1340189,7 7.0000616,7"
       id="path2" />
    <path
       style="display:inline;opacity:0.5;fill:#000000;fill-opacity:1;stroke:none;stroke-width:2;stroke-linecap:round;stroke-linejoin:round;stroke-miterlimit:4;stroke-dasharray:none;stroke-opacity:1;enable-background:new"
       d="m 11.984016,1036.3555 c -0.553973,0 -0.998913,0.4483 -0.997677,1.0023 l 0.0046,2 H 8.990954 c -0.5540424,0 -0.998983,0.4484 -0.9976761,1.0023 0.00124,0.5541 0.4482652,0.999 1.0023082,0.9977 h 1.9999849 l 0.0046,2 c 0.0012,0.554 0.448265,0.999 1.002308,0.9977 0.553972,0 0.998913,-0.4483 0.997676,-1.0023 l -0.0046,-2 h 1.999984 c 0.554043,0 0.998984,-0.4484 0.997677,-1.0023 -0.0012,-0.5541 -0.448265,-0.999 -1.002307,-0.9977 h -1.999986 l -0.0046,-2 c -0.0012,-0.554 -0.448265,-0.999 -1.002307,-0.9977 z"
       id="path1" />
  </g>
</svg>