<svg xmlns="http://www.w3.org/2000/svg" viewBox="0 0 16 16" width="16" height="16" fill="context-fill" fill-opacity="context-fill-opacity">
  <path d="m 9.5536025,0.9464525 c -0.1953,-0.19527 -0.51189,-0.19527 -0.70715,0 -0.19527,0.19526 -0.19527,0.51184 0,0.7071 l 1.6464505,1.64645 H 2.7000025 c -0.27614,0 -0.5,0.22386 -0.5,0.5 0,0.27614 0.22386,0.5 0.5,0.5 h 7.7929005 l -1.6464505,1.64645 c -0.19527,0.19526 -0.19527,0.51184 0,0.7071 0.19526,0.19527 0.51185,0.19527 0.70715,0 l 2.5000005,-2.5 c 0.1952,-0.19526 0.1952,-0.51184 0,-0.7071 z m -4.00005,7.7071 c 0.19527,-0.19526 0.19527,-0.51184 0,-0.7071 -0.19526,-0.19527 -0.51184,-0.19527 -0.7071,0 l -2.5,2.4999505 c -0.19527,0.1953 -0.19527,0.5119 0,0.7072 l 2.5,2.5 c 0.19526,0.1952 0.51184,0.1952 0.7071,0 0.19527,-0.1953 0.19527,-0.5119 0,-0.7072 l -1.64644,-1.6464 h 7.7928905 c 0.2761,0 0.5,-0.2239 0.5,-0.5 0,-0.2761 -0.2239,-0.5 -0.5,-0.5 H 3.9071125 Z"/>
</svg>