<svg width="16" height="16" xmlns="http://www.w3.org/2000/svg">
  <path
     style="display:inline;fill:#56f575;fill-opacity:1;fill-rule:evenodd;stroke:none"
     d="m 326.22213,-184.4181 c 3.86593,0 6.99994,-3.134 6.99994,-7 0,-3.866 -3.13401,-7 -6.99994,-7 -3.86604,0 -7.00006,3.134 -7.00006,7 0,3.866 3.13402,7 7.00006,7"
     id="path3"
     transform="matrix(1.121875,0,0,1.121875,-357.97538,222.75218)" />
  <g
     transform="matrix(1.121875,0,0,1.121875,-357.96664,252.00768)"
     id="rect" >
    <path
       id="path2"
       d="m 321.62394,-217.49486 h 3.5859 c 0.41551,0 1,-0.5845 1,-1 v -3.58594 z"
       style="opacity:1;fill:#00670f;fill-opacity:1;stroke:none;stroke-width:2;stroke-linecap:round;stroke-linejoin:round;stroke-miterlimit:4;stroke-dasharray:none;stroke-opacity:1" />
    <path
       style="opacity:1;fill:#00670f;fill-opacity:1;stroke:none;stroke-width:2;stroke-linecap:round;stroke-linejoin:round;stroke-miterlimit:4;stroke-dasharray:none;stroke-opacity:1"
       d="m 330.80461,-217.49598 h -3.5859 c -0.4155,0 -1,0.5845 -1,1 v 3.58594 z"
       id="path1" />
  </g>
</svg>
