<svg width="16" height="16" xmlns="http://www.w3.org/2000/svg">
  <path
     style="display:inline;fill:#10ad35;fill-opacity:1;fill-rule:evenodd;stroke:none"
     d="m 326.22213,-210.4181 c 3.86593,0 6.99994,-3.134 6.99994,-7 0,-3.866 -3.13401,-7 -6.99994,-7 -3.86604,0 -7.00006,3.134 -7.00006,7 0,3.866 3.13402,7 7.00006,7"
     id="path4"
     transform="matrix(1.121875,0,0,1.121875,-357.97538,251.92098)" />
  <path
     style="display:inline;opacity:1;fill:#29c749;fill-opacity:1;fill-rule:evenodd;stroke:none"
     d="m 326.22214,-210.918 c 3.58978,0 6.49993,-2.9103 6.49993,-6.5001 0,-3.5899 -2.91015,-6.5 -6.49993,-6.5 -3.58992,0 -6.50007,2.9101 -6.50007,6.5 0,3.5898 2.91015,6.5001 6.50007,6.5001"
     id="path3"
     transform="matrix(1.121875,0,0,1.121875,-357.97538,251.92098)" />
  <g
     id="rect"
     transform="matrix(1.121875,0,0,1.121875,-357.96664,252.00778)" >
    <path
       style="opacity:0.5;fill:#000000;fill-opacity:1;stroke:none;stroke-width:2;stroke-linecap:round;stroke-linejoin:round;stroke-miterlimit:4;stroke-dasharray:none;stroke-opacity:1"
       d="m 321.62394,-217.49486 h 3.5859 c 0.41551,0 1,-0.5845 1,-1 v -3.58594 z"
       id="path2" />
    <path
       id="path1"
       d="m 330.80461,-217.49598 h -3.5859 c -0.4155,0 -1,0.5845 -1,1 v 3.58594 z"
       style="opacity:0.5;fill:#000000;fill-opacity:1;stroke:none;stroke-width:2;stroke-linecap:round;stroke-linejoin:round;stroke-miterlimit:4;stroke-dasharray:none;stroke-opacity:1" />
  </g>
</svg>
